<?xml version="1.0" standalone="no"?>
<!DOCTYPE svg PUBLIC "-//W3C//DTD SVG 20010904//EN"
 "http://www.w3.org/TR/2001/REC-SVG-20010904/DTD/svg10.dtd">
<svg version="1.0" xmlns="http://www.w3.org/2000/svg"
 width="700.000000pt" height="700.000000pt" viewBox="0 0 700.000000 700.000000"
 preserveAspectRatio="xMidYMid meet">
<metadata>
Created by potrace 1.11, written by Peter Selinger 2001-2013
</metadata>
<g transform="translate(0.000000,700.000000) scale(0.100000,-0.100000)"
fill="#000000" stroke="none">
<path d="M0 3500 l0 -3500 3500 0 3500 0 0 3500 0 3500 -3500 0 -3500 0 0
-3500z m6560 0 l0 -3060 -1980 0 -1980 0 2 848 3 847 760 6 c713 5 768 7 890
27 274 45 434 92 630 187 471 229 699 589 771 1220 19 169 19 514 0 665 -49
383 -170 675 -371 898 -60 66 -197 178 -288 235 -173 110 -401 198 -627 243
-213 42 -269 44 -1617 44 l-1293 0 0 -2610 0 -2610 -510 0 -510 0 0 3060 0
3060 3060 0 3060 0 0 -3060z m-2748 1200 c417 -40 643 -223 704 -571 23 -132
15 -401 -15 -513 -68 -257 -241 -424 -509 -492 -143 -37 -322 -45 -887 -42
l-500 3 -3 813 -2 812 552 0 c304 0 601 -5 660 -10z"/>
</g>
</svg>
